<svg width="65" height="40" viewBox="0 0 65 40" fill="none" xmlns="http://www.w3.org/2000/svg">
<g id="main-logo-mobile" clip-path="url(#clip0_3921_36793)">
<g id="since 1911">
<path d="M17.9645 38.1206C17.7852 38.0417 17.6216 37.9313 17.4813 37.7946C17.41 37.7149 17.3698 37.6122 17.3678 37.5052C17.3658 37.4478 17.3773 37.3906 17.4015 37.3385C17.4257 37.2863 17.4618 37.2405 17.5069 37.2049C17.5512 37.1626 17.6035 37.1295 17.6607 37.1075C17.7179 37.0855 17.7788 37.0751 17.84 37.0767C18.0827 37.0938 18.3088 37.2056 18.4697 37.388L18.726 37.1207C18.505 36.8715 18.1943 36.7201 17.862 36.6995C17.7491 36.6956 17.6365 36.7144 17.5309 36.7546C17.4253 36.7949 17.3287 36.8558 17.247 36.9339C17.1088 37.074 17.0242 37.2583 17.0082 37.4545C16.9921 37.6507 17.0455 37.8463 17.1591 38.007C17.3139 38.192 17.5093 38.3387 17.7302 38.4356C17.9163 38.5172 18.0872 38.6299 18.2354 38.7689C18.3106 38.8535 18.3511 38.9634 18.3489 39.0765C18.3496 39.1462 18.3348 39.2152 18.3057 39.2785C18.2766 39.3419 18.2339 39.398 18.1805 39.4428C18.0687 39.5449 17.9218 39.5999 17.7705 39.5966C17.6435 39.5894 17.5196 39.5549 17.4072 39.4955C17.2947 39.4361 17.1964 39.3532 17.1188 39.2523L16.8662 39.538C16.974 39.6764 17.1134 39.7869 17.2726 39.8603C17.4325 39.9374 17.6077 39.9775 17.7851 39.9775C17.9097 39.9814 18.0338 39.9597 18.1496 39.9137C18.2655 39.8677 18.3707 39.7985 18.4588 39.7102C18.5462 39.6267 18.6155 39.526 18.6621 39.4144C18.7087 39.3028 18.7317 39.1828 18.7297 39.0619C18.7321 38.8855 18.6768 38.7132 18.5722 38.5711C18.4029 38.3806 18.196 38.2272 17.9645 38.1206Z" fill="#C59949"/>
<path d="M20.044 36.78H19.6449V39.8933H20.044V36.78Z" fill="#C59949"/>
<path d="M19.8463 35.4981C19.803 35.4972 19.7601 35.5056 19.7203 35.5226C19.6805 35.5397 19.6448 35.565 19.6156 35.597C19.5836 35.6269 19.5582 35.6633 19.5412 35.7036C19.5242 35.744 19.5158 35.7876 19.5168 35.8314C19.5166 35.8746 19.5252 35.9174 19.5422 35.9571C19.5592 35.9968 19.5842 36.0325 19.6156 36.0622C19.6448 36.0941 19.6805 36.1195 19.7203 36.1365C19.7601 36.1536 19.803 36.162 19.8463 36.1611C19.89 36.1616 19.9334 36.153 19.9737 36.136C20.014 36.119 20.0504 36.0939 20.0806 36.0622C20.1108 36.0318 20.1348 35.9959 20.1511 35.9563C20.1675 35.9167 20.1758 35.8742 20.1758 35.8314C20.1765 35.7879 20.1685 35.7448 20.1521 35.7045C20.1358 35.6642 20.1114 35.6276 20.0806 35.597C20.0504 35.5653 20.014 35.5402 19.9737 35.5232C19.9334 35.5061 19.89 35.4976 19.8463 35.4981Z" fill="#C59949"/>
<path d="M23.3389 36.8789C23.1542 36.7579 22.9373 36.6953 22.7165 36.6994C22.4951 36.6985 22.2772 36.7539 22.0832 36.8606C21.8725 36.9785 21.6901 37.141 21.5487 37.3368V36.7764H21.1496V39.8896H21.5487V38.7469C21.5397 38.4636 21.5593 38.1801 21.6072 37.9008C21.6616 37.6685 21.7901 37.4602 21.9733 37.3075C22.1536 37.1497 22.3855 37.0637 22.625 37.0657C22.8089 37.0572 22.9901 37.1129 23.1375 37.2232C23.2798 37.3409 23.3747 37.5061 23.4048 37.6884C23.4457 37.9303 23.4616 38.1757 23.4524 38.4209V39.886H23.8514V38.2854C23.8673 37.9676 23.8238 37.6496 23.7233 37.3477C23.6436 37.1573 23.51 36.9944 23.3389 36.8789Z" fill="#C59949"/>
<path d="M26.5752 37.0767C26.7933 37.069 27.0098 37.115 27.2059 37.2108C27.4019 37.3067 27.5713 37.4493 27.6992 37.6261L28.0177 37.4283C27.9291 37.279 27.8137 37.1474 27.6772 37.0401C27.5289 36.9331 27.3645 36.8502 27.1903 36.7947C26.9976 36.7319 26.7962 36.6998 26.5936 36.6995C26.2819 36.6954 25.9745 36.7711 25.7003 36.9192C25.4398 37.059 25.2231 37.2681 25.0742 37.5236C24.9244 37.7776 24.846 38.0674 24.8472 38.3623C24.8448 38.5762 24.8868 38.7882 24.9706 38.9849C25.0544 39.1816 25.1782 39.3588 25.3342 39.5051C25.4974 39.6605 25.6899 39.782 25.9004 39.8625C26.1109 39.943 26.3353 39.9808 26.5606 39.9739C26.8569 39.9797 27.1503 39.9157 27.4173 39.7871C27.6615 39.6724 27.8693 39.4924 28.0177 39.267L27.6992 39.0582C27.5689 39.2313 27.3994 39.3711 27.2047 39.466C27.0099 39.5608 26.7955 39.6081 26.5789 39.6039C26.3428 39.6072 26.1098 39.5505 25.9016 39.4391C25.7037 39.3315 25.54 39.1703 25.4293 38.974C25.3141 38.78 25.2534 38.5586 25.2536 38.333C25.2505 38.1675 25.2813 38.0031 25.3443 37.85C25.4073 37.6969 25.501 37.5583 25.6197 37.443C25.7464 37.3211 25.8963 37.2259 26.0604 37.163C26.2245 37.1001 26.3996 37.0707 26.5752 37.0767Z" fill="#C59949"/>
<path d="M31.7775 37.3038C31.6286 37.1089 31.4352 36.9524 31.2137 36.8473C30.9921 36.7422 30.7486 36.6915 30.5035 36.6995C30.2658 36.6921 30.0297 36.7418 29.815 36.8444C29.6004 36.947 29.4134 37.0995 29.2698 37.2892C29.0309 37.5886 28.9017 37.9609 28.9037 38.344C28.9035 38.7616 29.0573 39.1646 29.3357 39.4758C29.4843 39.6423 29.6683 39.7734 29.8742 39.8596C30.0801 39.9457 30.3026 39.9848 30.5255 39.9739C30.7365 39.9767 30.9462 39.9407 31.1442 39.8677C31.3256 39.7985 31.4921 39.6953 31.6348 39.5637C31.7869 39.4108 31.9108 39.2322 32.0009 39.0362L31.6641 38.8604C31.5745 39.0251 31.4596 39.1747 31.3236 39.3036C31.2089 39.3983 31.0789 39.4726 30.9392 39.5234C30.7914 39.5773 30.6352 39.6046 30.4779 39.604C30.3219 39.6052 30.1674 39.5732 30.0247 39.51C29.8821 39.4469 29.7545 39.354 29.6505 39.2377C29.4168 39.0018 29.2853 38.6834 29.2844 38.3513H32.0887C32.1018 37.9776 31.9925 37.6098 31.7775 37.3038ZM29.3576 38.0363C29.417 37.7914 29.5439 37.5681 29.7237 37.3917C29.9411 37.198 30.2235 37.0934 30.5145 37.0987C30.6978 37.0991 30.8789 37.1391 31.0453 37.2159C31.2017 37.2857 31.3396 37.391 31.4481 37.5236C31.5625 37.6754 31.6425 37.8504 31.6824 38.0363H29.3576Z" fill="#C59949"/>
<path d="M35.4166 36.0951H36.0756V39.8933H36.4929V35.6812H35.6655L35.4166 36.0951Z" fill="#C59949"/>
<path d="M40.348 35.7472C40.1508 35.6344 39.9271 35.5762 39.7 35.5787C39.4675 35.578 39.2389 35.6386 39.0374 35.7545C38.8366 35.8609 38.6703 36.0222 38.5578 36.2197C38.4436 36.419 38.3854 36.6456 38.3893 36.8753C38.3849 37.0394 38.4133 37.2027 38.4731 37.3556C38.5328 37.5084 38.6226 37.6478 38.7371 37.7653C38.8456 37.8829 38.9777 37.9763 39.1247 38.0394C39.2716 38.1025 39.4302 38.1339 39.5902 38.1316C39.7361 38.1291 39.8808 38.1031 40.0185 38.0547L38.8799 39.7798L39.2277 40.0032L40.5018 38.0986C40.6498 37.8852 40.7726 37.6553 40.8679 37.4137C40.9348 37.2406 40.9708 37.0572 40.974 36.8716C40.9756 36.6445 40.9175 36.4209 40.8056 36.2233C40.6995 36.0257 40.5412 35.8611 40.348 35.7472ZM40.315 37.5016C40.1474 37.666 39.922 37.7581 39.6872 37.7581C39.4524 37.7581 39.227 37.666 39.0593 37.5016C38.9762 37.42 38.9103 37.3225 38.8657 37.2149C38.821 37.1073 38.7985 36.9918 38.7994 36.8753C38.7996 36.7001 38.8516 36.5289 38.949 36.3833C39.0463 36.2377 39.1846 36.1242 39.3464 36.0572C39.5082 35.9902 39.6862 35.9726 39.858 36.0068C40.0297 36.0409 40.1875 36.1252 40.3114 36.249C40.3957 36.3296 40.4624 36.427 40.5071 36.5348C40.5519 36.6426 40.5737 36.7586 40.5713 36.8753C40.5739 36.9928 40.5525 37.1096 40.5084 37.2185C40.4644 37.3275 40.3986 37.4263 40.315 37.5089V37.5016Z" fill="#C59949"/>
<path d="M42.4531 36.0951H43.1121V39.8933H43.5331V35.6812H42.7057L42.4531 36.0951Z" fill="#C59949"/>
<path d="M45.9713 36.0951H46.6303V39.8933H47.0513V35.6812H46.2239L45.9713 36.0951Z" fill="#C59949"/>
</g>
<g id="Davidoff of Geneva">
<path d="M62.7938 1.42804C62.8426 1.30328 62.9349 1.20047 63.0537 1.1387C63.2119 1.04875 63.3918 1.00438 63.5736 1.0105C63.9179 1.02408 64.2562 1.10496 64.5694 1.24857V0.201056C64.1654 0.0709027 63.7452 -0.00185012 63.321 -0.0150515C62.9885 -0.0233041 62.6598 0.0576388 62.3691 0.219365C62.1214 0.359217 61.9251 0.574895 61.809 0.83469C61.6763 1.24835 61.6205 1.68283 61.6443 2.11662V3.44617H60.546V4.37283H61.6443V11.7787H62.7389V4.37283H64.4779V3.44617H62.7389V2.32173C62.7233 2.02272 62.7417 1.72289 62.7938 1.42804Z" fill="#C59949"/>
<path d="M32.0783 0.0652874C32.1848 0.0205514 32.2993 -0.00180634 32.4147 -0.000403214C32.531 7.6782e-05 32.6462 0.0234849 32.7535 0.068473C32.8608 0.113461 32.9582 0.179153 33.0401 0.2618C33.122 0.344447 33.1869 0.442425 33.231 0.550148C33.275 0.657872 33.2975 0.773223 33.297 0.889623C33.295 1.06271 33.2422 1.23138 33.1451 1.37466C33.048 1.51794 32.911 1.6295 32.751 1.69547C32.591 1.76144 32.4152 1.77889 32.2454 1.74567C32.0756 1.71245 31.9193 1.63001 31.796 1.50861C31.7129 1.42851 31.647 1.33232 31.6023 1.2259C31.5576 1.11948 31.5351 1.00505 31.536 0.889623C31.5346 0.772503 31.557 0.656314 31.6016 0.548047C31.6463 0.43978 31.7124 0.341674 31.796 0.259643C31.8758 0.176179 31.9719 0.110023 32.0783 0.0652874Z" fill="#C59949"/>
<path fill-rule="evenodd" clip-rule="evenodd" d="M10.639 6.27376C10.6604 7.31344 10.4079 8.34045 9.90675 9.25151C9.47396 10.057 8.81464 10.7179 8.01034 11.1524C7.23421 11.5602 6.14445 11.7641 4.74106 11.7641H1.15692V0.497734H3.49265C5.17671 0.497734 6.39705 0.633247 7.15366 0.904285C8.20912 1.25832 9.11285 1.96096 9.71638 2.89678C10.35 3.90681 10.671 5.08171 10.639 6.27376ZM3.53292 10.6983C5.08763 10.6983 6.16763 10.6006 6.77292 10.4052C7.58419 10.1561 8.28655 9.63808 8.76452 8.93651C9.26914 8.15432 9.52447 7.23727 9.49672 6.30672C9.52518 5.32013 9.25045 4.34855 8.7096 3.52309C8.18575 2.75328 7.40831 2.19198 6.51299 1.93716C5.37033 1.67756 4.19855 1.56919 3.0277 1.61484H2.23326V10.6983H3.53292Z" fill="#C59949"/>
<path fill-rule="evenodd" clip-rule="evenodd" d="M19.905 10.332C19.4891 10.8483 18.9673 11.2693 18.3747 11.5663C17.8091 11.847 17.1865 11.9937 16.5552 11.9949C15.99 12.0025 15.4295 11.8921 14.9095 11.6707C14.3894 11.4493 13.9212 11.1219 13.5348 10.7092C13.1269 10.3002 12.8058 9.81293 12.5907 9.27671C12.3755 8.74049 12.2708 8.16633 12.2828 7.58865C12.2742 7.01699 12.3817 6.44954 12.5988 5.92069C12.8159 5.39184 13.1381 4.9126 13.5458 4.51201C13.9369 4.10091 14.4087 3.77515 14.9316 3.55518C15.4545 3.3352 16.0172 3.22577 16.5844 3.23374C17.2297 3.22312 17.8675 3.37287 18.4406 3.66959C19.025 3.9837 19.5269 4.43178 19.905 4.97717V3.44617H20.9594V11.7641H19.905V10.332ZM13.3572 7.62345C13.3572 8.21401 13.5119 8.79427 13.8057 9.30644C14.091 9.82568 14.5109 10.2584 15.0212 10.5591C15.5152 10.8527 16.0794 11.0071 16.654 11.0059C17.2396 11.0066 17.8152 10.8538 18.3234 10.5627C18.8308 10.2823 19.2503 9.86636 19.5352 9.36138C19.8223 8.83889 19.9686 8.25072 19.9599 7.65458C19.9727 7.20788 19.8946 6.76326 19.7304 6.34769C19.5661 5.93213 19.3191 5.55432 19.0044 5.23722C18.7026 4.92158 18.3384 4.67227 17.935 4.50516C17.5316 4.33805 17.0978 4.25681 16.6613 4.26661C16.0788 4.26229 15.5059 4.41556 15.0032 4.7102C14.5005 5.00484 14.0868 5.42991 13.8057 5.94045C13.5119 6.45263 13.3572 7.03289 13.3572 7.62345Z" fill="#C59949"/>
<path d="M26.5973 11.7641L30.4121 3.43153H29.2626L26.5022 9.50423L23.7051 3.43153H22.5629L26.3996 11.7641H26.5973Z" fill="#C59949"/>
<path d="M32.9529 3.43153H31.8802V11.7641H32.9529V3.43153Z" fill="#C59949"/>
<path fill-rule="evenodd" clip-rule="evenodd" d="M40.9229 11.5663C40.3528 11.8436 39.7263 11.9853 39.0924 11.9802C38.5265 11.9912 37.9646 11.8839 37.4426 11.665C36.9206 11.4461 36.45 11.1206 36.0611 10.7092C35.6532 10.3002 35.332 9.81293 35.1169 9.27671C34.9017 8.74049 34.797 8.16633 34.809 7.58865C34.8004 7.01699 34.9079 6.44954 35.125 5.92069C35.3421 5.39184 35.6643 4.9126 36.072 4.51201C36.4631 4.10091 36.9349 3.77515 37.4578 3.55518C37.9808 3.3352 38.5435 3.22577 39.1107 3.23374C39.757 3.22358 40.3959 3.37329 40.9705 3.66959C41.5552 3.98336 42.0571 4.4315 42.4349 4.97717V0.215698H43.4893V11.7641H42.4349V10.332C42.0251 10.8471 41.5095 11.268 40.9229 11.5663ZM37.553 4.69461C37.0496 4.98928 36.6353 5.4147 36.354 5.9258L36.3576 5.9258C36.0637 6.43797 35.9091 7.01823 35.9091 7.60879C35.9091 8.19935 36.0637 8.77961 36.3576 9.29179C36.6429 9.80981 37.0612 10.2422 37.5694 10.5444C38.0636 10.8375 38.6277 10.9918 39.2022 10.9913C39.7879 10.9924 40.3636 10.8396 40.8716 10.5481C41.379 10.2676 41.7985 9.8517 42.0834 9.34673C42.3705 8.82424 42.5168 8.23608 42.5081 7.63993C42.5199 7.19368 42.4418 6.74963 42.2782 6.33429C42.1147 5.91895 41.8691 5.54085 41.5563 5.22257C41.254 4.90746 40.8898 4.65851 40.4865 4.49144C40.0832 4.32438 39.6496 4.24284 39.2132 4.25196C38.63 4.24698 38.0563 4.39993 37.553 4.69461Z" fill="#C59949"/>
<path fill-rule="evenodd" clip-rule="evenodd" d="M49.8631 11.9802C50.4474 11.9989 51.029 11.8919 51.5684 11.6663C52.1078 11.4407 52.5925 11.1019 52.9896 10.6726C53.7586 9.85471 54.1923 8.77747 54.2045 7.65462C54.2167 6.53177 53.8066 5.44535 53.0555 4.6109C52.6477 4.171 52.1535 3.82007 51.6039 3.58009C51.0542 3.34011 50.461 3.21625 49.8613 3.21625C49.2616 3.21625 48.6683 3.34011 48.1187 3.58009C47.569 3.82007 47.0748 4.171 46.667 4.6109C45.9157 5.44376 45.5053 6.52911 45.5175 7.65097C45.5297 8.77284 45.9636 9.84899 46.7329 10.6653C47.1297 11.0965 47.6146 11.4372 48.1548 11.6641C48.6949 11.891 49.2776 11.9988 49.8631 11.9802ZM47.564 5.25553C47.8593 4.94318 48.2151 4.69437 48.6098 4.52433C49.0045 4.35429 49.4297 4.26659 49.8594 4.26659C50.2892 4.26659 50.7144 4.35429 51.1091 4.52433C51.5038 4.69437 51.8596 4.94318 52.1549 5.25553C52.4674 5.56858 52.7136 5.94135 52.879 6.35162C53.0445 6.76189 53.1256 7.20127 53.1177 7.64359C53.1212 8.23398 52.9697 8.81495 52.6784 9.32842C52.4027 9.83231 51.9936 10.2505 51.4959 10.5371C50.9955 10.8158 50.4322 10.9621 49.8594 10.9621C49.2867 10.9621 48.7234 10.8158 48.223 10.5371C47.7253 10.2505 47.3162 9.83231 47.0405 9.32842C46.7492 8.81495 46.5977 8.23398 46.6011 7.64359C46.5933 7.20127 46.6744 6.76189 46.8398 6.35162C47.0053 5.94135 47.2515 5.56858 47.564 5.25553Z" fill="#C59949"/>
<path d="M57.7636 11.7641H56.6909L56.6836 4.37283H55.5853V3.44618H56.6836V2.14593C56.6598 1.71214 56.7156 1.27766 56.8483 0.863999C56.9644 0.604204 57.1607 0.388515 57.4085 0.248663C57.699 0.0864318 58.0278 0.00546551 58.3603 0.0142578C58.7845 0.0274592 59.2048 0.100201 59.6087 0.230354V1.27787C59.292 1.12733 58.9485 1.04142 58.5983 1.02516C58.4165 1.01904 58.2366 1.0634 58.0784 1.15334C57.9596 1.21512 57.8672 1.31794 57.8185 1.4427C57.7675 1.73274 57.7491 2.02759 57.7636 2.32173V3.44618H59.5026V4.35818H57.7636V11.7641Z" fill="#C59949"/>
<path d="M9.753 17.639C9.55266 17.7515 9.39453 17.9264 9.30269 18.1371C9.19641 18.4693 9.15174 18.8181 9.17089 19.1663V20.2139H8.28859V20.9464H9.17089V26.9129H10.0202V20.9464H11.4224V20.2139H10.0202V19.3092C10.0085 19.0727 10.0233 18.8356 10.0642 18.6023C10.1034 18.5017 10.1775 18.4185 10.2729 18.3679C10.4008 18.295 10.5467 18.2594 10.6939 18.2653C10.9757 18.2792 11.252 18.3489 11.5066 18.4704V17.6244C11.1822 17.5193 10.8444 17.4614 10.5035 17.4522C10.2413 17.4475 9.98244 17.5119 9.753 17.639Z" fill="#C59949"/>
<path fill-rule="evenodd" clip-rule="evenodd" d="M3.92099 20.0417C3.4372 20.0322 2.95717 20.1285 2.5145 20.324C2.07183 20.5195 1.67721 20.8094 1.35827 21.1735C0.753087 21.8441 0.422668 22.7183 0.432845 23.6217C0.443023 24.5252 0.793052 25.3917 1.41319 26.0485C1.74305 26.3817 2.13564 26.6462 2.56828 26.8268C3.00092 27.0073 3.46504 27.1002 3.9338 27.1002C4.40256 27.1002 4.86668 27.0073 5.29932 26.8268C5.73196 26.6462 6.12456 26.3817 6.45441 26.0485C7.07377 25.3896 7.42284 24.5218 7.43234 23.6173C7.44183 22.7129 7.11105 21.8379 6.50566 21.1662C6.18364 20.8006 5.78517 20.5103 5.33849 20.316C4.89181 20.1216 4.40787 20.028 3.92099 20.0417ZM6.19082 24.9643C5.96905 25.3717 5.63815 25.709 5.23529 25.9386C4.83194 26.1621 4.37842 26.2794 3.91733 26.2794C3.45624 26.2794 3.00271 26.1621 2.59936 25.9386C2.19761 25.7088 1.86795 25.3714 1.6475 24.9643C1.40797 24.5529 1.28166 24.0853 1.28139 23.6092C1.27514 23.2524 1.34061 22.898 1.47394 22.567C1.60727 22.2361 1.80573 21.9353 2.05753 21.6826C2.29669 21.4333 2.58375 21.235 2.90146 21.0995C3.21917 20.964 3.56098 20.8942 3.90634 20.8942C4.25171 20.8942 4.59351 20.964 4.91122 21.0995C5.22893 21.235 5.516 21.4333 5.75516 21.6826C6.00696 21.9353 6.20541 22.2361 6.33874 22.567C6.47207 22.898 6.53755 23.2524 6.53129 23.6092C6.5373 24.0828 6.41995 24.5498 6.19082 24.9643Z" fill="#C59949"/>
<path d="M21.2413 23.4553V22.5799H25.1146C25.1097 23.984 24.6936 25.0974 23.8662 25.9203C23.4293 26.339 22.912 26.6646 22.3457 26.8774C21.7793 27.0902 21.1757 27.1857 20.5713 27.1583C19.8203 27.1914 19.0715 27.0541 18.3811 26.7566C17.6906 26.4591 17.0764 26.0092 16.5844 25.4405C15.8459 24.5956 15.4445 23.5081 15.4569 22.3858C15.4529 21.5424 15.6767 20.7134 16.1049 19.9868C16.5273 19.2568 17.1413 18.6565 17.8804 18.2507C18.6663 17.8241 19.5492 17.6084 20.4432 17.6244C21.1872 17.6198 21.9248 17.7617 22.6141 18.0419C23.353 18.3584 24.0261 18.8106 24.5984 19.3751L23.8955 20.0417C23.4177 19.563 22.8538 19.179 22.2334 18.9099C21.6784 18.6639 21.0794 18.5331 20.4724 18.5254C19.7619 18.5261 19.063 18.7062 18.4406 19.0491C17.8276 19.3742 17.3149 19.8605 16.9579 20.4556C16.6137 21.0286 16.4315 21.6844 16.4307 22.3529C16.4303 23.0402 16.619 23.7143 16.9762 24.3014C17.339 24.9197 17.8645 25.4265 18.4955 25.7665C19.1458 26.1197 19.8753 26.3012 20.6152 26.2939C21.4736 26.3195 22.3131 26.0391 22.9839 25.5028C23.6192 24.9963 24.0317 24.2616 24.1335 23.4553H21.2413Z" fill="#C59949"/>
<path fill-rule="evenodd" clip-rule="evenodd" d="M31.1393 20.3614C31.6162 20.5882 32.0322 20.9256 32.3525 21.3456C32.8528 22.0086 33.1111 22.8229 33.0847 23.6531H27.0623C27.0464 24.364 27.3092 25.0529 27.7945 25.5723C28.0242 25.8121 28.3015 26.0011 28.6085 26.1273C28.9156 26.2534 29.2456 26.3139 29.5774 26.3049C29.9187 26.3057 30.2572 26.2449 30.5769 26.1254C30.8783 26.0201 31.1575 25.86 31.4006 25.6529C31.6909 25.3739 31.9377 25.0529 32.1328 24.7006L32.865 25.0852C32.6604 25.5097 32.38 25.8932 32.0376 26.217C31.7321 26.5028 31.374 26.7267 30.9833 26.8762C30.5577 27.0316 30.1072 27.1074 29.6543 27.0997C29.1738 27.124 28.6939 27.0399 28.2503 26.8535C27.8067 26.6671 27.4106 26.3832 27.0916 26.0229C26.5176 25.3801 26.1886 24.5553 26.1625 23.6938C26.1364 22.8322 26.4148 21.9891 26.9488 21.3127C27.2584 20.9032 27.6618 20.5741 28.1249 20.3529C28.588 20.1318 29.0975 20.0251 29.6104 20.0417C30.1382 20.025 30.6624 20.1346 31.1393 20.3614ZM27.9263 21.5031C27.5392 21.883 27.2665 22.364 27.1392 22.8913L32.1438 22.8876C32.0542 22.49 31.8821 22.1156 31.6386 21.7888C31.4027 21.5015 31.1031 21.2732 30.7636 21.1222C30.4061 20.9548 30.0161 20.8685 29.6214 20.8695C28.9964 20.8576 28.3903 21.0841 27.9263 21.5031Z" fill="#C59949"/>
<path d="M39.3304 22.1771C39.4136 22.689 39.4455 23.208 39.4256 23.7264V26.9275H40.2895V23.4736C40.3252 22.7894 40.2308 22.1046 40.0113 21.4555C39.8369 21.0322 39.5365 20.6729 39.151 20.4263C38.7553 20.1675 38.291 20.0336 37.8184 20.0417C37.34 20.037 36.8684 20.1555 36.4491 20.386C35.9957 20.643 35.6035 20.9954 35.2996 21.4189V20.2139H34.4392V26.9275H35.2996V24.4662C35.279 23.8531 35.3207 23.2395 35.4241 22.6349C35.5516 22.131 35.8378 21.6815 36.2405 21.353C36.6315 21.0169 37.1308 20.8335 37.6463 20.8365C38.0395 20.8206 38.4265 20.9381 38.7446 21.1698C39.0512 21.427 39.2584 21.7833 39.3304 22.1771Z" fill="#C59949"/>
<path fill-rule="evenodd" clip-rule="evenodd" d="M46.5341 20.361C47.011 20.5878 47.4269 20.9254 47.747 21.3456C48.2529 22.0063 48.5154 22.8213 48.4902 23.6531H42.4532C42.4373 24.364 42.7001 25.0529 43.1854 25.5723C43.4154 25.8117 43.6927 26.0005 43.9997 26.1267C44.3067 26.2528 44.6366 26.3135 44.9683 26.3049C45.3096 26.306 45.6482 26.2452 45.9678 26.1254C46.2692 26.0202 46.5485 25.86 46.7915 25.6529C47.0818 25.3739 47.3286 25.0529 47.5237 24.7006L48.2559 25.0852C48.0513 25.5088 47.7723 25.8921 47.4322 26.217C47.1247 26.5021 46.7655 26.7258 46.3742 26.8763C45.9498 27.0313 45.5006 27.1071 45.0489 27.0997C44.5684 27.1235 44.0887 27.0391 43.6452 26.8527C43.2016 26.6664 42.8055 26.3828 42.4862 26.0229C41.9122 25.3801 41.5832 24.5553 41.5571 23.6938C41.531 22.8323 41.8094 21.9891 42.3434 21.3127C42.6534 20.9037 43.0568 20.5749 43.5199 20.3538C43.9829 20.1327 44.4921 20.0257 45.0049 20.0417C45.5328 20.0247 46.0571 20.1341 46.5341 20.361ZM43.3355 21.5031C42.9431 21.8812 42.6652 22.3623 42.5337 22.8913L47.553 22.8876C47.4634 22.49 47.2913 22.1156 47.0478 21.7888C46.8134 21.5016 46.515 21.2733 46.1765 21.1222C45.819 20.9548 45.4289 20.8685 45.0342 20.8695C44.4081 20.8574 43.8009 21.0839 43.3355 21.5031Z" fill="#C59949"/>
<path d="M52.3782 25.1072L50.1267 20.2139H49.2078L52.2977 26.9275H52.4588L55.5304 20.2139H54.6041L52.3782 25.1072Z" fill="#C59949"/>
<path fill-rule="evenodd" clip-rule="evenodd" d="M61.2525 20.3934C61.7198 20.6489 62.121 21.0101 62.4241 21.4482V20.2139H63.2771V26.9129H62.4241V25.7592C62.0959 26.1745 61.6811 26.5132 61.2086 26.7517C60.5657 27.0591 59.8425 27.157 59.1411 27.0315C58.4396 26.906 57.7952 26.5634 57.2986 26.0522C56.97 25.7228 56.7112 25.3306 56.5376 24.8989C56.364 24.4671 56.2791 24.0048 56.2882 23.5396C56.2812 23.0789 56.3678 22.6215 56.5427 22.1953C56.7177 21.769 56.9773 21.3828 57.306 21.06C57.6209 20.7282 58.0011 20.4651 58.4226 20.2873C58.8441 20.1096 59.2978 20.021 59.7552 20.0271C60.2768 20.0245 60.791 20.1503 61.2525 20.3934ZM61.1647 25.946C61.5732 25.7209 61.9105 25.386 62.1385 24.979C62.374 24.5548 62.494 24.0761 62.4863 23.5909C62.4959 23.231 62.4327 22.873 62.3006 22.5381C62.1685 22.2033 61.9701 21.8986 61.7175 21.6423C61.4729 21.3896 61.179 21.1899 60.854 21.0557C60.529 20.9215 60.1799 20.8556 59.8284 20.8622C59.3606 20.8631 58.9017 20.9896 58.4995 21.2284C58.0929 21.4678 57.7579 21.8118 57.5293 22.2247C57.2908 22.6365 57.1652 23.1039 57.1652 23.5799C57.1652 24.0558 57.2908 24.5233 57.5293 24.9351C57.7578 25.353 58.0941 25.7021 58.5031 25.946C58.9016 26.1842 59.3568 26.3108 59.8211 26.3122C60.2932 26.3095 60.7564 26.1832 61.1647 25.946Z" fill="#C59949"/>
</g>
</g>
<defs>
<clipPath id="clip0_3921_36793">
<rect width="64.1667" height="40" fill="white" transform="translate(0.416992)"/>
</clipPath>
</defs>
</svg>
